<svg xmlns="http://www.w3.org/2000/svg" width="26" height="20" viewBox="0 0 26 20"><g><g><path d="M8.617 8.833l-8.2 9.177A3.208 3.208 0 0 1 0 16.448V3.462c0-.636.19-1.224.506-1.724zm15.821 10.363c-.497.312-1.08.5-1.712.5H3.246c-.63 0-1.214-.188-1.711-.5l8.304-9.293 2.613 2.288a.81.81 0 0 0 1.069 0l2.612-2.288zM1.7.625c.462-.254.983-.41 1.547-.41h19.48c.562 0 1.084.156 1.547.41L12.986 10.5zm24.273 15.823c0 .57-.16 1.098-.417 1.562l-8.2-9.175 8.111-7.097c.316.5.506 1.089.506 1.724v12.986z"/></g></g></svg>