<svg id="instagram" xmlns="http://www.w3.org/2000/svg" width="25.779" height="25.779" viewBox="0 0 25.779 25.779">
  <path id="Path_3" data-name="Path 3" d="M22,0H3.776A3.781,3.781,0,0,0,0,3.776V22A3.781,3.781,0,0,0,3.776,25.78H22A3.781,3.781,0,0,0,25.779,22V3.776A3.781,3.781,0,0,0,22,0ZM12.94,19.637a6.8,6.8,0,1,1,6.8-6.8A6.8,6.8,0,0,1,12.94,19.637ZM20.493,7.553a2.266,2.266,0,1,1,2.266-2.266A2.268,2.268,0,0,1,20.493,7.553Zm0,0" transform="translate(0)" fill="#2f2f2f"/>
  <path id="Path_4" data-name="Path 4" d="M392.755,90a.755.755,0,1,0,.755.755A.756.756,0,0,0,392.755,90Zm0,0" transform="translate(-372.263 -85.468)" fill="#2f2f2f"/>
  <path id="Path_5" data-name="Path 5" d="M157.287,150a5.287,5.287,0,1,0,5.287,5.287A5.293,5.293,0,0,0,157.287,150Zm0,0" transform="translate(-144.347 -142.447)" fill="#2f2f2f"/>
</svg>
