<svg xmlns="http://www.w3.org/2000/svg" width="23" height="23" viewBox="0 0 23 23"><g><g><path d="M18.73 14.26c-.805-.794-1.81-.794-2.61 0-.61.605-1.22 1.21-1.82 1.825-.163.17-.302.205-.502.093-.394-.216-.815-.39-1.194-.626-1.769-1.112-3.25-2.543-4.563-4.152-.65-.8-1.23-1.656-1.635-2.62-.082-.195-.067-.323.092-.482.61-.59 1.205-1.194 1.805-1.8.835-.84.835-1.824-.005-2.67-.477-.482-.954-.954-1.43-1.436-.493-.492-.98-.99-1.477-1.476C4.586.13 3.58.13 2.78.92c-.615.605-1.204 1.225-1.83 1.82-.58.548-.871 1.22-.933 2.004-.097 1.277.216 2.482.656 3.656.903 2.43 2.277 4.588 3.943 6.567 2.25 2.676 4.937 4.793 8.08 6.32 1.414.688 2.88 1.216 4.475 1.303 1.097.061 2.05-.215 2.814-1.072.523-.584 1.113-1.117 1.666-1.676.82-.83.826-1.835.01-2.656-.974-.979-1.953-1.953-2.932-2.927z"/></g></g></svg>