<svg xmlns="http://www.w3.org/2000/svg" width="24.636" height="24.637" viewBox="0 0 24.636 24.637">
  <g id="telephone" transform="translate(0.95)">
    <g id="Group_3" data-name="Group 3" transform="translate(-0.95)">
      <path id="Path_12" data-name="Path 12" d="M18.736,60.069a1.726,1.726,0,0,0-2.609,0c-.61.6-1.22,1.21-1.82,1.825a.36.36,0,0,1-.5.092c-.395-.215-.815-.39-1.194-.625a18.926,18.926,0,0,1-4.563-4.153,10.809,10.809,0,0,1-1.635-2.62.375.375,0,0,1,.092-.482c.61-.59,1.2-1.194,1.8-1.8A1.733,1.733,0,0,0,8.3,49.637c-.477-.482-.954-.954-1.43-1.435-.492-.492-.979-.989-1.476-1.476a1.737,1.737,0,0,0-2.609.005c-.615.6-1.2,1.225-1.83,1.82a2.971,2.971,0,0,0-.933,2A8.493,8.493,0,0,0,.68,54.21a22.211,22.211,0,0,0,3.942,6.567A24.4,24.4,0,0,0,12.7,67.1a11.685,11.685,0,0,0,4.475,1.3,3.28,3.28,0,0,0,2.814-1.071c.523-.584,1.112-1.118,1.666-1.676A1.744,1.744,0,0,0,21.668,63Q20.207,61.528,18.736,60.069Z" transform="translate(-0.006 -43.772)"/>
      <path id="Path_13" data-name="Path 13" d="M243.411,103.29l1.892-.323A8.491,8.491,0,0,0,238.121,96l-.267,1.9a6.562,6.562,0,0,1,5.557,5.388Z" transform="translate(-225.661 -91.079)"/>
      <path id="Path_14" data-name="Path 14" d="M251.018,3.988a13.949,13.949,0,0,0-8-3.988l-.267,1.9a12.171,12.171,0,0,1,10.3,9.981l1.892-.323A14.051,14.051,0,0,0,251.018,3.988Z" transform="translate(-230.309)"/>
    </g>
  </g>
</svg>
